# xmcd CD database file
#
# Track frame offsets:
#	182
#	11530
#	27135
#	41870
#	55260
#	70102
#	90945
#	104742
#	118635
#	133962
#	146995
#	156135
#	169847
#	187262
#
# Disc length: 2703 seconds
#
# Revision: 3
# Processed by: cddbd v1.5.2PL0 Copyright (c) Steve Scherf et al.
# Submitted via: CDex 1.51
#
DISCID=cb0a8d0e
DTITLE=Various Artist - Hallo, Guten Morgen Deutschland
DYEAR=1900
DGENRE=Country
TTITLE0=Armin Barthel - Hallo, guten Morgen Deutschland
TTITLE1=Tom Astor - Ich hau den Lukus
TTITLE2=Tom Astor - Ich hab Hunger auf ein Weib
TTITLE3=Carl Kaye - Mein Truck springt nicht an
TTITLE4=Gus Backus - Hey, Cowboy
TTITLE5=Peter Orloff - Die Strasse
TTITLE6=Johnny Guitarro - Highway nach San Franzisco
TTITLE7=Tom Astor - Mein Laster wartet schon
TTITLE8=Carl Kaye - Asphalt Cowbay
TTITLE9=Johnny Guitarro - Bring ich heim
TTITLE10=Buddy Caine - Was ich brauche, was ich liebe
TTITLE11=Peter Kaufmann Quartet - Country Music
TTITLE12=Tom Astor - Meine Antwort ist die grosse Autobahn
TTITLE13=Fred Rai - Freiheit auf Rädern
EXTD=
EXTT0=
EXTT1=
EXTT2=
EXTT3=
EXTT4=
EXTT5=
EXTT6=
EXTT7=
EXTT8=
EXTT9=
EXTT10=
EXTT11=
EXTT12=
EXTT13=
PLAYORDER=
